<svg width="185" height="133" viewBox="0 0 185 133" fill="none" xmlns="http://www.w3.org/2000/svg">
<path d="M87.6852 1.16745L88.7542 1.52045L89.1982 0.514435L90.6482 0.273438L91.4522 1.42844L92.2082 1.25546L92.7291 2.05444L95.1382 2.99646L97.0891 2.72644L98.2682 2.00446L98.4272 2.49146L98.8062 2.18344L99.3362 2.83646L100.279 2.81445L101.399 4.23245L102.216 4.02945L103.141 4.41644L102.927 5.21045L104.084 4.70044L104.345 6.42645L103.8 7.27444L104.045 7.08246L104.184 7.81244L104.657 7.79645L105.502 8.92145L105.241 10.0204L106.88 10.2824L106.681 10.9254L106.044 10.9095L105.834 12.1905L107.027 12.6024L106.648 12.8315L106.877 13.2744L106.191 13.3694L105.976 14.2874L105.634 13.9344L105.002 14.4135L105.421 15.2054L104.654 15.1735L104.539 16.0274L103.753 16.0735L104.241 17.0135L103.026 17.3805L104.293 18.7104L103.061 19.7495L102.752 21.7784L101.639 22.5584L101.771 23.6085L101.016 23.8344L101.336 25.2534L100.276 24.5374L100.016 24.8134L100.506 24.8824L100.469 25.2484L98.9262 26.4114L100.277 28.1354L100.149 29.2885L97.4661 29.9915L96.8712 30.6484L96.0342 30.1075L95.4592 30.6794L93.4722 30.2654L92.8222 30.9644L92.2802 30.6895L91.8482 31.4044L92.1002 32.6794L91.1932 33.3535L90.5692 33.2044L90.2072 34.4454L89.4791 35.0494L90.2282 35.9275L89.7412 36.5194L90.5182 36.8195L90.7152 38.0144L91.6202 38.6654L91.3602 39.1855L92.6392 39.7864L92.0501 40.1444L92.5652 40.7125L91.5692 40.6725L90.1542 41.6324L90.1492 43.6825L86.7551 46.3864L86.7222 46.9525L87.6682 47.9625L87.9062 49.4695L88.9132 51.3084L88.7132 53.8025L87.8932 54.6125L88.9372 55.6784L88.8801 56.3375L90.8492 57.7455L90.1171 59.0284L91.2402 60.2635L92.3942 59.7585L93.8722 57.5594L95.4022 58.4024L97.3001 60.9604L97.9231 61.2025L98.6212 60.7604L98.9072 61.0924L99.2082 60.6534L99.8662 62.4405L100.323 61.7545L101.691 61.4625L102.296 59.6775L103.533 58.4804L103.9 56.4755L102.313 55.8935L102.423 55.1144L102.777 55.4875L103.523 55.2025L101.751 51.9365L99.5562 53.0034L98.9822 52.7314L98.7851 51.4714L99.4622 50.4594L99.2981 48.3774L99.6332 47.9185L99.2962 46.8545L97.2851 45.9135L96.9771 44.9525L96.3152 44.4785L96.7311 42.2595L95.7942 41.4235L95.1962 37.7255L93.6912 36.9135L92.7981 37.4495L92.2392 37.0334L92.5162 36.6765L93.0702 36.9334L93.5962 36.2234L93.7652 36.6775L94.2851 36.6215L94.6282 36.1605L94.2862 35.3214L95.3552 35.5764L95.0392 34.5674L95.6092 34.6505L95.9262 34.0754L96.4522 34.3195L96.9572 33.4544L97.6492 33.3675L97.9762 33.8034L97.3001 34.3795L97.0362 34.0055L97.0652 34.7455L98.1352 34.9584L98.2322 35.5525L99.2942 35.4275L98.8492 34.1754L100.31 33.7675L99.0992 33.6884L98.4632 33.0095L98.6122 32.1475L99.1301 32.7134L100.665 32.9544L100.997 33.2155L100.33 33.4015L100.758 33.7205L101.237 32.9204L100.633 31.9325L101.631 31.6024L101.596 30.8484L102.35 30.7945L102.486 31.2104L102.777 30.7855L103.01 31.4445L102.476 31.6844L102.88 32.6234L102.201 33.3875L102.743 33.8155L103.392 33.5724L103.777 35.0215L102.733 35.5794L101.975 35.0374L102.785 34.9955L103.166 34.4644L101.605 34.7534L100.83 35.5714L100.95 36.0274L99.8712 36.4315L99.6892 36.8275L100.284 36.7765L100.158 37.4414L100.914 38.4034L101.641 35.7484L102.711 36.0424L103.239 35.6234L103.599 37.1135L102.984 37.6314L102.313 37.3625L101.959 38.0284L101.628 37.7904L101.544 39.8564L103.145 38.6094L104.139 39.1674L104.115 38.2975L103.623 38.0404L104.331 37.3025L104.48 37.9644L105.408 38.4825L104.741 39.3835L104.682 40.3814L105.128 40.4965L105.991 39.2455L106.747 39.8984L106.484 40.3694L106.931 41.1265L107.98 40.9674L107.718 40.4005L108.096 40.1985L108.547 41.0575L109.217 40.9974L109.324 40.4365L108.704 40.2625L109.164 39.9724L109.652 40.1494L109.671 40.8665L110.574 40.6085L110.811 40.1815L110.063 39.1345L109.954 37.9674L111.189 39.0555L111.49 38.7465L111.116 38.3864L111.346 37.3994L110.717 37.6494L110.25 36.9965L109.657 37.4305L109.672 36.5364L110.396 35.8464L111.468 36.0114L111.151 36.9095L111.615 37.5695L111.918 36.9034L112.92 37.7115L113.801 37.1435L114.492 37.4554L113.839 37.4755L113.166 38.4974L113.494 38.7855L112.801 38.8724L112.262 39.7585L112.582 41.0645L112.917 40.4755L113.25 41.2014L114.031 40.5825L113.867 41.4584L114.481 41.7704L116.065 39.5905L116.571 40.2864L116.845 40.1154L116.742 40.6515L119.835 40.3654L122.144 41.4084L121.971 40.6064L122.482 40.2174L121.96 38.1494L123.117 37.7644L123.348 38.3055L123.958 37.4195L125.092 37.4944L125.594 35.7784L126.904 35.4865L127.741 35.8875L129.093 34.8455L129.219 34.0955L130.293 34.3554L130.516 33.8065L131.665 34.7614L131.525 37.0284L133.073 38.2115L133.513 38.0854L134.03 39.6695L132.514 40.3424L130.748 42.9774L131.788 43.5995L132.672 43.0735L133.16 43.4485L132.817 42.3455L134.385 41.7864L135.003 42.6454L135.505 42.6314L135.626 41.6144L135.127 41.3224L135.825 41.3505L136.535 42.1175L136.934 41.5714L137.862 42.0135L137.607 40.1035L138.398 40.8384L137.748 41.2725L138.899 41.9615L139.38 41.7924L139.26 42.4275L140.383 42.0215L141.403 42.2545L141.404 41.7354L140.342 41.4214L140.344 40.8484L139.805 40.5204L141.898 40.3065L142.487 41.1375L142.666 39.2425L143.54 39.1754L144.103 39.9875L143.267 40.8304L143.386 42.0395L142.465 42.7715L142.915 43.7144L141.697 44.3204L141.952 44.9485L142.637 45.1754L143.682 44.8464L144.001 45.0594L143.944 44.6664L144.771 44.3044L145.156 45.3784L146.445 45.2234L146.293 44.7214L147.693 44.7685L148.866 46.1505L149.473 44.6255L150.259 45.1704L149.954 45.2975L150.544 45.1754L150.316 43.7704L151.57 42.0995L151.237 41.2465L151.727 39.8164L152.507 39.8564L152.68 40.9995L152.645 39.9124L153 39.7075L154.283 40.8424L155.099 40.6014L155.269 41.1345L154.485 41.1954L156.219 41.9504L156.719 41.2174L155.992 40.5204L156.464 40.1704L157.076 40.3705L156.76 39.3724L157.95 39.1725L158.272 39.8044L159.051 40.0024L158.489 40.5374L158.679 41.3694L159.004 40.8535L159.322 41.2994L158.524 41.8384L158.745 42.2765L159.882 41.8405L160.368 42.6664L161.425 42.5534L162.614 43.4395L163.455 43.2274L164.643 43.8375L164.902 43.4514L165.186 45.2585L164.859 46.1394L166.172 47.5605L167.129 47.0995L169.376 48.4405H170.364L171.129 47.7004L170.774 48.1565L171.412 48.6874L170.991 48.6685L170.646 49.6484L171.502 49.8984L171.203 49.3625L171.691 49.3694L171.652 49.0185L172.016 49.3084L172.127 48.8185L171.84 51.2495L172.324 51.3304L172.54 50.8665L173.232 51.2425L173.18 52.5315L173.93 52.3015L175.592 52.8954L175.434 50.9254L176.077 50.4114L176.423 51.0605L177.88 51.0504L178.106 51.6555L180.8 50.5454L181.595 51.1115L181.579 51.8315L182.994 51.7994L182.938 52.8495L183.697 52.8505L183.79 53.9284L182.644 54.1844L181.943 53.8474L182.008 54.8285L182.446 55.1385L181.83 57.7595L182.948 58.0364L183.023 59.8774L182.725 61.1635L182.245 61.4575L182.107 63.3805L181.07 62.9365L180.788 63.4764L181.856 64.7084L183.067 64.7744L182.559 66.0624L183.717 66.4325L183.936 67.3914L182.687 68.3204L180.77 68.6484L180.676 69.8174L179.293 70.5834L178.066 70.5555L178.425 71.2365L177.833 71.4625L176.656 70.8445L173.898 71.0204L172.371 70.6054L171.761 70.9464L171.198 70.3765L171.295 69.8975L170.426 70.6494L167.977 70.6354L167.042 69.6664L165.995 69.9005L165.278 69.4424L163.948 70.5504L162.477 70.8334L161.146 70.1834L161.228 69.7614L159.943 68.2444L158.874 68.6685L158.621 69.8814L159.293 70.4024L159.484 71.7604L160.204 72.1505L160.481 72.8914L159.556 74.2794L158.931 74.2644L158.71 75.6494L158.02 75.9084L158.174 76.6735L158.773 76.7744L158.801 77.7644L159.244 78.1394L159.795 77.2035L160.602 77.3904L161.501 76.3894L162.937 76.8805L163.409 77.6635L165.276 77.1924L166.527 79.8925L167.362 79.6574L167.331 80.4634L167.984 80.6914L169.089 80.2425L169.348 81.1905L169.912 81.0544L170.918 81.8805L170.993 82.8065L170.009 84.0955L170.189 86.0404L169.453 86.9005L168.432 86.6054L167.531 87.4365L165.731 87.4885L165.32 88.3214L165.776 90.2174L164.096 91.1695L164.02 91.7144L162.199 92.1075L162.021 92.9925L162.511 94.5204L161.722 95.4265L162.06 96.8455L161.595 97.1964L161.227 96.5615L160.894 97.1605L159.837 97.5584L159.673 98.9795L159.147 99.0844L158.984 99.6544L156.959 99.6324L156.138 100.684L155.263 100.669L155.472 101.268L154.978 101L154.395 101.855L154.022 100.413L152.853 99.9854L152.456 100.944L151.86 100.545L150.665 101.622L149.863 100.755L148.396 101.86L148.476 105.161L147.866 106.233L146.5 106.627L146.424 108.796L145.483 109.202L146.171 109.601L146.075 110.396L145.328 110.467L145.058 109.239L144.227 109.101L142.865 112.654L142.293 112.746L142.672 113.221L142.57 116.155L142.141 117.44L140.713 117.205L140.201 118.239L140.007 121.039L140.446 123.606L138.904 126.764L137.577 126.898L135.323 125.269L134.545 125.164L134.379 125.84L133.604 125.742L133.304 125.051L133.77 124.363L132.918 122.512L130.608 120.291L129.1 119.977L127.566 120.585L126.491 121.759L125.025 122.204L123.828 121.709L123.398 122.433L122.168 122.288L119.563 120.686L117.78 121.702L115.46 121.992L114.454 119.083L112.93 118.696L112.489 119.074L111.533 118.977L109.014 117.968L108.83 119.605L107.321 119.387L106.071 120.761L104.426 120.709L104.11 120.323L102.41 120.913L102.716 121.631L102.226 121.753L102.984 122.674L102.8 123.263L102.045 122.968L101.711 123.317L99.7182 123.224L99.4582 123.715L98.9192 123.118L98.3602 123.771L95.5362 123.274L95.1532 122.629L93.9392 122.344L92.2962 122.942L92.1392 120.699L91.2382 120.325L90.8492 121.229L90.3432 120.954L89.6592 121.382L88.8642 120.87L88.9292 121.399L87.0812 121.667L86.8382 123.014L82.0112 125.509L80.8202 125.715L79.0932 124.942L78.9692 125.423L78.0582 125.536L77.7222 126.005L77.1232 126.131L76.8272 125.282L76.3272 125.854L75.9872 125.365L74.9522 125.361L75.0201 125.954L74.5942 126.01L72.5552 125.714L72.1842 123.944L71.5351 123.586L71.0882 122.241L71.9372 121.715L74.2291 122.315L75.0692 122.024L74.3131 121.579L74.3202 120.137L73.7092 118.481L72.3131 116.903L68.3521 117.098L68.2871 117.961L67.0611 118.103L66.7011 118.638L65.9492 117.893L65.6621 118.203L63.8742 117.991L60.2902 120.725L59.2652 120.407L58.8752 120.898L58.0752 120.798L57.9182 122.082L57.3971 122.474L58.0012 123.207L57.8422 123.73L54.5002 126.667L55.2652 127.844L54.4752 129.848L51.6292 129.772L50.9032 131.584L49.3052 132.421L47.3242 132.466L46.9132 132.035L45.0402 132.258L43.8122 130.473L44.9192 130.337L45.0422 129.946L44.4492 128.833L44.7591 128.364L43.4921 125.799L42.5232 126.274L40.7721 125.351L39.0842 125.225L34.5902 125.656L33.2392 125.328L31.9672 125.831L30.2981 125.346L28.8332 125.597L28.0582 125.144L26.8131 125.456L26.7652 124.867L25.0952 124.973L22.9032 123.884L21.7011 121.528L18.4392 120.066L16.1191 120.506L11.2591 118.906L11.1222 118.092L10.2612 117.905L10.1032 116.102L10.6012 113.824L9.88816 112.798L8.95115 112.424L8.89616 111.181L7.68815 111.324L6.98316 112.244L5.88316 112.507L5.62415 113.218L3.75916 113.446L2.61616 112.808L2.78015 112.081L1.60516 111.429L3.34315 109.832L2.79716 109.408L2.28616 109.582L2.13016 106.994L1.14616 106.791L1.47716 106.302L0.798157 105.356L1.06615 103.68L1.90315 103.423L2.37016 104.308L3.55916 104.541L3.88815 103.513L4.31216 103.718L4.96015 102.784L5.71815 102.909L4.87715 102.039L3.84315 101.949L3.55415 101.032L3.46815 101.791L2.93115 102.061L2.57915 101.508L2.13416 102.316L1.72215 101.257L1.19415 101.307L1.34415 100.341L0.458153 100.74L0.285156 100.344L0.957153 99.3864L2.76916 100.14L5.11416 97.2694L7.60215 97.2975L7.99715 95.3304L9.58515 92.4435L9.01015 90.9655L7.94115 91.5225L7.13816 90.7604L6.71116 90.0454L7.32215 89.6995L6.31615 87.8294L7.74816 86.7144L10.2831 87.2394L10.9832 86.2595L12.2882 85.9714L13.5672 84.6895L14.5382 84.8424L15.1692 84.4485L15.1712 83.9814L14.1092 84.2004L14.6762 83.7595L14.2372 83.0875L13.0882 83.3694L11.5312 82.4365L11.1451 82.8535L10.4092 81.8055L11.5071 80.6945L11.5752 79.6784L12.4002 78.7975L13.2652 78.7285L14.2271 77.8365L14.9172 77.9095L15.9921 76.8294L16.3671 77.1475L17.2571 76.6905L18.5262 75.1284L19.2311 74.9594L18.5592 73.7675L19.2482 72.5844L18.5182 69.4214L18.8462 68.0135L20.3462 65.8724L18.0051 61.6805L18.5221 61.2195L18.2802 60.5804L17.7652 60.1465L15.3182 60.1014L15.9641 59.3214L16.0342 58.0695L17.5232 55.8805L16.6892 56.0034L16.6592 55.3354L15.8662 55.5135L14.4632 54.8835L15.4012 53.8845L15.2172 52.9185L16.0992 52.5984L15.9602 52.0034L16.6642 51.2035L15.7892 50.8354L16.2922 48.3625L18.2502 51.5775L19.2972 51.4615L19.7011 50.5355L20.4902 50.3604L20.3552 49.3464L20.9172 49.3455L20.6412 48.3524L18.7551 48.5565L17.5322 47.9625L17.3292 48.4305L17.4762 47.0414L16.8001 45.3134L17.2762 44.2625L17.7132 45.1194L18.0792 44.8264L18.6712 45.3164L18.8202 46.1555L21.4012 46.9034L21.6722 46.3824L22.9811 46.2195L22.9152 44.4674L23.9342 43.8635L23.8242 42.6274L27.7271 42.6884L27.8521 43.0945L27.1702 43.5225L27.5582 44.5194L27.0631 45.9584L26.2682 44.2065L26.0682 44.5464L26.6282 45.4365L25.9661 46.2044L27.0091 46.6685L27.3172 46.2654L29.3732 46.1345L29.2242 46.7964L26.8932 47.9565L26.3322 47.0355L25.2532 46.9055L25.7252 46.0674L25.1702 46.1974L24.8512 45.7394L24.7072 46.3294L25.7662 47.4105L24.8142 48.0355L24.3762 48.9944L25.0342 50.0414L26.0872 49.8055L29.9522 50.7094L32.6742 50.0355L33.3322 50.8204L36.3951 49.0704L38.0512 49.8705L37.8082 51.2075L38.2612 51.6295L37.8292 52.5395L38.0432 52.9445L38.5682 52.5494L39.6972 53.4984L39.4712 53.9405L39.8572 54.3694L39.1462 54.9135L39.5802 55.3065L39.5212 56.1364L38.2291 56.9875L37.0542 55.7014L36.1662 56.7715L36.3032 57.2075L35.7092 57.3004L35.9402 58.6104L36.5091 59.4615L37.4742 59.6265L37.8022 60.9294L36.6852 61.5125L36.0572 63.3665L36.7432 63.3805L37.0221 64.0464L37.9892 64.0104L37.9472 64.8294L36.8131 65.1345L36.4452 66.5964L35.1552 67.2545L34.5012 65.7855L33.7802 66.5534L32.7152 66.7344L32.3612 66.0324L31.2602 65.4395L30.2222 66.9894L30.0492 68.3545L32.2282 69.7394L32.5542 70.1595L32.1332 70.5135L32.6872 71.0955L34.1372 71.0594L34.8212 71.9995L34.8832 70.6654L35.5201 70.6704L35.7562 69.7794L35.1072 69.3484L35.1952 68.7354L36.1881 69.0544L36.7591 69.8774L37.1182 69.4114L38.5091 68.9275L38.8852 69.1784L40.9202 68.0775L40.5932 65.9714L42.4092 64.8254L44.2462 64.3774L43.9661 62.0714L44.6601 60.9904L44.4202 60.0414L45.3092 58.9854L45.7432 59.4554L45.5012 60.0525L45.9392 61.6054L47.3452 61.6305L48.2692 60.7644L50.1021 61.8195L50.2942 61.3734L50.9142 61.6054L51.2642 61.2725L52.5512 62.8235L53.5622 62.4294L53.2701 61.9705L53.9312 61.3055L53.7362 60.8575L54.2792 61.0265L54.3281 60.5544L55.9322 60.0464L56.1321 60.8745L55.5392 62.1385L56.1032 62.6404L57.2311 62.6255L58.1962 63.8055L59.3452 63.3814L60.2652 63.5605L60.6041 62.2465L61.1972 61.8455L59.7262 60.3665L59.0142 58.8214L59.2472 55.8405L58.4782 54.3474L59.5592 54.0045L59.8391 54.5555L60.5362 54.1375L60.5732 55.4154L61.6341 56.0294L62.3912 55.6394L63.0292 54.4755L63.4132 54.5274L63.7141 53.5345L63.6041 51.8734L62.9182 50.3055L61.7732 49.8285L61.3492 49.0544L60.4632 49.4825L59.1632 49.4005L58.2062 47.8075L58.8362 47.3394L60.8222 47.1194L61.2902 46.5905L60.5562 46.2455L60.7031 45.5834L60.0822 45.5164L59.3111 43.4355L62.2282 41.8354L63.9771 42.3405L64.7562 42.0844L65.9101 41.0584L67.8502 40.9315L68.6992 41.7444L70.7022 41.0685L70.5392 39.3464L71.1102 39.2344L70.8671 38.4695L69.6792 37.4225L70.1432 36.3065L69.4022 36.1834L69.9242 34.1695L68.7502 33.6295L68.2831 33.9254L66.9702 35.0804L66.6542 36.5095L63.9402 35.8585L62.8662 36.7474L61.4962 36.8375L61.1422 37.3394L60.1242 36.2564L59.0732 36.0695L57.5472 36.4915L57.4771 35.9384L55.6832 35.7245L54.0392 34.7224L53.7551 33.7434L53.2392 33.4915L52.3182 31.4734L52.1191 28.1735L51.4272 27.6605L51.5242 27.1274L52.5342 26.7614L52.5071 25.2815L53.8342 23.5185L54.5432 23.5955L54.9522 22.7165L56.7782 22.8625L57.3862 22.4105L57.2502 21.9554L58.3052 21.6945L59.0152 20.3445L58.8092 19.9204L60.0102 18.4435L62.0672 17.5374L63.0872 16.3885L64.2792 16.1805L64.9562 15.0875L66.6112 15.1005L68.4292 13.7495L69.3652 12.3174L71.4121 12.1375L71.3131 11.1624L73.3052 10.9764L76.3372 8.80444L77.3052 8.89944L77.9412 7.94543L79.3782 7.72345L79.5331 6.67444L80.7682 6.19846L81.0862 5.22144L82.2022 5.15546L83.1301 4.27945L85.0882 4.73645L85.1592 3.45245L85.7232 3.06744L85.3832 2.07846L86.9802 2.20746L86.6621 1.37845L87.6852 1.16745Z" fill="#0F0672" stroke="white" stroke-width="0.5"/>
<path d="M54.7908 83.4553H56.3079L57.9102 87.3643H57.9783L59.5806 83.4553H61.0977V89.2734H59.9045V85.4865H59.8562L58.3505 89.245H57.538L56.0323 85.4723H55.984V89.2734H54.7908V83.4553ZM63.3327 89.3558C63.0543 89.3558 62.8062 89.3075 62.5884 89.2109C62.3706 89.1125 62.1983 88.9676 62.0714 88.7763C61.9464 88.5831 61.8839 88.3426 61.8839 88.0547C61.8839 87.8123 61.9284 87.6087 62.0174 87.4439C62.1064 87.2791 62.2276 87.1465 62.381 87.0462C62.5344 86.9458 62.7087 86.87 62.9038 86.8189C63.1007 86.7678 63.3072 86.7318 63.5231 86.7109C63.7769 86.6844 63.9814 86.6598 64.1367 86.6371C64.292 86.6125 64.4047 86.5765 64.4748 86.5291C64.5449 86.4818 64.5799 86.4117 64.5799 86.3189V86.3018C64.5799 86.1219 64.5231 85.9827 64.4094 85.8842C64.2977 85.7857 64.1386 85.7365 63.9322 85.7365C63.7144 85.7365 63.5411 85.7848 63.4123 85.8814C63.2835 85.9761 63.1983 86.0954 63.1566 86.2393L62.0373 86.1484C62.0941 85.8833 62.2058 85.6541 62.3725 85.4609C62.5392 85.2659 62.7541 85.1162 63.0174 85.0121C63.2826 84.906 63.5894 84.853 63.9379 84.853C64.1803 84.853 64.4123 84.8814 64.6339 84.9382C64.8574 84.995 65.0553 85.0831 65.2276 85.2024C65.4019 85.3217 65.5392 85.4751 65.6396 85.6626C65.7399 85.8482 65.7901 86.0708 65.7901 86.3303V89.2734H64.6424V88.6683H64.6083C64.5382 88.8047 64.4445 88.925 64.3271 89.0291C64.2096 89.1314 64.0685 89.2119 63.9038 89.2706C63.739 89.3274 63.5487 89.3558 63.3327 89.3558ZM63.6793 88.5206C63.8574 88.5206 64.0146 88.4856 64.1509 88.4155C64.2873 88.3435 64.3943 88.2469 64.4719 88.1257C64.5496 88.0045 64.5884 87.8672 64.5884 87.7138V87.2507C64.5505 87.2753 64.4985 87.2981 64.4322 87.3189C64.3678 87.3378 64.2949 87.3558 64.2134 87.3729C64.132 87.388 64.0505 87.4022 63.9691 87.4155C63.8877 87.4268 63.8138 87.4373 63.7475 87.4467C63.6055 87.4676 63.4814 87.5007 63.3754 87.5462C63.2693 87.5916 63.1869 87.6532 63.1282 87.7308C63.0695 87.8066 63.0401 87.9013 63.0401 88.0149C63.0401 88.1797 63.0998 88.3056 63.2191 88.3928C63.3403 88.478 63.4937 88.5206 63.6793 88.5206ZM68.337 89.3445C68.0056 89.3445 67.7054 89.2592 67.4364 89.0888C67.1694 88.9164 66.9573 88.6636 66.8001 88.3303C66.6448 87.995 66.5671 87.584 66.5671 87.0973C66.5671 86.5973 66.6476 86.1816 66.8086 85.8501C66.9696 85.5168 67.1836 85.2678 67.4506 85.103C67.7196 84.9363 68.0141 84.853 68.3342 84.853C68.5785 84.853 68.7821 84.8946 68.945 84.978C69.1097 85.0594 69.2423 85.1617 69.3427 85.2848C69.445 85.406 69.5226 85.5253 69.5756 85.6428H69.6126V83.4553H70.82V89.2734H69.6268V88.5746H69.5756C69.5188 88.6958 69.4383 88.8161 69.3342 88.9354C69.2319 89.0528 69.0984 89.1503 68.9336 89.228C68.7707 89.3056 68.5719 89.3445 68.337 89.3445ZM68.7205 88.3814C68.9156 88.3814 69.0804 88.3284 69.2148 88.2223C69.3512 88.1143 69.4554 87.9638 69.5273 87.7706C69.6012 87.5774 69.6381 87.3511 69.6381 87.0916C69.6381 86.8321 69.6022 86.6068 69.5302 86.4155C69.4582 86.2242 69.354 86.0765 69.2177 85.9723C69.0813 85.8681 68.9156 85.8161 68.7205 85.8161C68.5217 85.8161 68.354 85.87 68.2177 85.978C68.0813 86.0859 67.9781 86.2356 67.908 86.4268C67.8379 86.6181 67.8029 86.8397 67.8029 87.0916C67.8029 87.3454 67.8379 87.5698 67.908 87.7649C67.98 87.9581 68.0832 88.1096 68.2177 88.2195C68.354 88.3274 68.5217 88.3814 68.7205 88.3814ZM73.0252 86.7507V89.2734H71.815V83.4553H72.9911V85.6797H73.0423C73.1407 85.4221 73.2998 85.2204 73.5195 85.0746C73.7392 84.9268 74.0148 84.853 74.3462 84.853C74.6493 84.853 74.9135 84.9193 75.1388 85.0518C75.3661 85.1825 75.5423 85.371 75.6673 85.6172C75.7942 85.8615 75.8567 86.1541 75.8548 86.495V89.2734H74.6445V86.7109C74.6464 86.442 74.5782 86.2327 74.44 86.0831C74.3036 85.9335 74.1123 85.8587 73.8661 85.8587C73.7013 85.8587 73.5555 85.8937 73.4286 85.9638C73.3036 86.0339 73.2051 86.1361 73.1332 86.2706C73.0631 86.4032 73.0271 86.5632 73.0252 86.7507ZM77.3981 90.9098C77.2447 90.9098 77.1007 90.8975 76.9663 90.8729C76.8337 90.8501 76.7238 90.8208 76.6367 90.7848L76.9094 89.8814C77.0515 89.925 77.1793 89.9486 77.293 89.9524C77.4085 89.9562 77.5079 89.9297 77.5913 89.8729C77.6765 89.8161 77.7456 89.7195 77.7987 89.5831L77.8697 89.3984L76.3043 84.9098H77.5771L78.4805 88.1143H78.5259L79.4379 84.9098H80.7191L79.0231 89.745C78.9416 89.9799 78.8308 90.1844 78.6907 90.3587C78.5524 90.5348 78.3772 90.6702 78.1651 90.7649C77.953 90.8615 77.6973 90.9098 77.3981 90.9098ZM82.4656 89.3558C82.1871 89.3558 81.939 89.3075 81.7212 89.2109C81.5034 89.1125 81.3311 88.9676 81.2042 88.7763C81.0792 88.5831 81.0167 88.3426 81.0167 88.0547C81.0167 87.8123 81.0612 87.6087 81.1502 87.4439C81.2392 87.2791 81.3604 87.1465 81.5138 87.0462C81.6673 86.9458 81.8415 86.87 82.0366 86.8189C82.2335 86.7678 82.44 86.7318 82.6559 86.7109C82.9097 86.6844 83.1142 86.6598 83.2695 86.6371C83.4248 86.6125 83.5375 86.5765 83.6076 86.5291C83.6777 86.4818 83.7127 86.4117 83.7127 86.3189V86.3018C83.7127 86.1219 83.6559 85.9827 83.5423 85.8842C83.4305 85.7857 83.2714 85.7365 83.065 85.7365C82.8472 85.7365 82.6739 85.7848 82.5451 85.8814C82.4163 85.9761 82.3311 86.0954 82.2894 86.2393L81.1701 86.1484C81.2269 85.8833 81.3387 85.6541 81.5053 85.4609C81.672 85.2659 81.887 85.1162 82.1502 85.0121C82.4154 84.906 82.7222 84.853 83.0707 84.853C83.3131 84.853 83.5451 84.8814 83.7667 84.9382C83.9902 84.995 84.1881 85.0831 84.3604 85.2024C84.5347 85.3217 84.672 85.4751 84.7724 85.6626C84.8728 85.8482 84.9229 86.0708 84.9229 86.3303V89.2734H83.7752V88.6683H83.7411C83.671 88.8047 83.5773 88.925 83.4599 89.0291C83.3424 89.1314 83.2013 89.2119 83.0366 89.2706C82.8718 89.3274 82.6815 89.3558 82.4656 89.3558ZM82.8121 88.5206C82.9902 88.5206 83.1474 88.4856 83.2837 88.4155C83.4201 88.3435 83.5271 88.2469 83.6048 88.1257C83.6824 88.0045 83.7212 87.8672 83.7212 87.7138V87.2507C83.6834 87.2753 83.6313 87.2981 83.565 87.3189C83.5006 87.3378 83.4277 87.3558 83.3462 87.3729C83.2648 87.388 83.1834 87.4022 83.1019 87.4155C83.0205 87.4268 82.9466 87.4373 82.8803 87.4467C82.7383 87.4676 82.6142 87.5007 82.5082 87.5462C82.4021 87.5916 82.3197 87.6532 82.261 87.7308C82.2023 87.8066 82.1729 87.9013 82.1729 88.0149C82.1729 88.1797 82.2326 88.3056 82.3519 88.3928C82.4731 88.478 82.6265 88.5206 82.8121 88.5206ZM87.7362 89.2734V83.4553H90.0316C90.4729 83.4553 90.8488 83.5395 91.1594 83.7081C91.4701 83.8748 91.7068 84.1068 91.8697 84.4041C92.0344 84.6996 92.1168 85.0405 92.1168 85.4268C92.1168 85.8132 92.0335 86.1541 91.8668 86.4496C91.7002 86.745 91.4587 86.9751 91.1424 87.1399C90.828 87.3047 90.4473 87.3871 90.0004 87.3871H88.5373V86.4013H89.8015C90.0382 86.4013 90.2333 86.3606 90.3867 86.2791C90.542 86.1958 90.6576 86.0812 90.7333 85.9354C90.811 85.7876 90.8498 85.6181 90.8498 85.4268C90.8498 85.2337 90.811 85.0651 90.7333 84.9212C90.6576 84.7753 90.542 84.6626 90.3867 84.5831C90.2314 84.5017 90.0344 84.4609 89.7958 84.4609H88.9663V89.2734H87.7362ZM92.8931 89.2734V84.9098H94.0664V85.6712H94.1119C94.1914 85.4003 94.3249 85.1958 94.5124 85.0575C94.6999 84.9174 94.9158 84.8473 95.1602 84.8473C95.2208 84.8473 95.2861 84.8511 95.3562 84.8587C95.4263 84.8662 95.4878 84.8767 95.5408 84.8899V85.9638C95.484 85.9467 95.4054 85.9316 95.305 85.9183C95.2047 85.9051 95.1128 85.8984 95.0295 85.8984C94.8514 85.8984 94.6924 85.9373 94.5522 86.0149C94.4139 86.0907 94.3041 86.1967 94.2227 86.3331C94.1431 86.4695 94.1033 86.6267 94.1033 86.8047V89.2734H92.8931ZM97.2859 89.3558C97.0075 89.3558 96.7594 89.3075 96.5415 89.2109C96.3237 89.1125 96.1514 88.9676 96.0245 88.7763C95.8995 88.5831 95.837 88.3426 95.837 88.0547C95.837 87.8123 95.8815 87.6087 95.9705 87.4439C96.0595 87.2791 96.1808 87.1465 96.3342 87.0462C96.4876 86.9458 96.6618 86.87 96.8569 86.8189C97.0539 86.7678 97.2603 86.7318 97.4762 86.7109C97.73 86.6844 97.9345 86.6598 98.0898 86.6371C98.2451 86.6125 98.3578 86.5765 98.4279 86.5291C98.498 86.4818 98.533 86.4117 98.533 86.3189V86.3018C98.533 86.1219 98.4762 85.9827 98.3626 85.8842C98.2508 85.7857 98.0917 85.7365 97.8853 85.7365C97.6675 85.7365 97.4942 85.7848 97.3654 85.8814C97.2366 85.9761 97.1514 86.0954 97.1097 86.2393L95.9904 86.1484C96.0472 85.8833 96.159 85.6541 96.3256 85.4609C96.4923 85.2659 96.7073 85.1162 96.9705 85.0121C97.2357 84.906 97.5425 84.853 97.891 84.853C98.1334 84.853 98.3654 84.8814 98.587 84.9382C98.8105 84.995 99.0084 85.0831 99.1808 85.2024C99.355 85.3217 99.4923 85.4751 99.5927 85.6626C99.6931 85.8482 99.7433 86.0708 99.7433 86.3303V89.2734H98.5955V88.6683H98.5614C98.4914 88.8047 98.3976 88.925 98.2802 89.0291C98.1628 89.1314 98.0217 89.2119 97.8569 89.2706C97.6921 89.3274 97.5018 89.3558 97.2859 89.3558ZM97.6325 88.5206C97.8105 88.5206 97.9677 88.4856 98.104 88.4155C98.2404 88.3435 98.3474 88.2469 98.4251 88.1257C98.5027 88.0045 98.5415 87.8672 98.5415 87.7138V87.2507C98.5037 87.2753 98.4516 87.2981 98.3853 87.3189C98.3209 87.3378 98.248 87.3558 98.1665 87.3729C98.0851 87.388 98.0037 87.4022 97.9222 87.4155C97.8408 87.4268 97.7669 87.4373 97.7006 87.4467C97.5586 87.4676 97.4345 87.5007 97.3285 87.5462C97.2224 87.5916 97.14 87.6532 97.0813 87.7308C97.0226 87.8066 96.9933 87.9013 96.9933 88.0149C96.9933 88.1797 97.0529 88.3056 97.1722 88.3928C97.2934 88.478 97.4469 88.5206 97.6325 88.5206ZM102.29 89.3445C101.959 89.3445 101.658 89.2592 101.39 89.0888C101.123 88.9164 100.91 88.6636 100.753 88.3303C100.598 87.995 100.52 87.584 100.52 87.0973C100.52 86.5973 100.601 86.1816 100.762 85.8501C100.923 85.5168 101.137 85.2678 101.404 85.103C101.673 84.9363 101.967 84.853 102.287 84.853C102.532 84.853 102.735 84.8946 102.898 84.978C103.063 85.0594 103.195 85.1617 103.296 85.2848C103.398 85.406 103.476 85.5253 103.529 85.6428H103.566V83.4553H104.773V89.2734H103.58V88.5746H103.529C103.472 88.6958 103.391 88.8161 103.287 88.9354C103.185 89.0528 103.051 89.1503 102.887 89.228C102.724 89.3056 102.525 89.3445 102.29 89.3445ZM102.674 88.3814C102.869 88.3814 103.033 88.3284 103.168 88.2223C103.304 88.1143 103.408 87.9638 103.48 87.7706C103.554 87.5774 103.591 87.3511 103.591 87.0916C103.591 86.8321 103.555 86.6068 103.483 86.4155C103.411 86.2242 103.307 86.0765 103.171 85.9723C103.034 85.8681 102.869 85.8161 102.674 85.8161C102.475 85.8161 102.307 85.87 102.171 85.978C102.034 86.0859 101.931 86.2356 101.861 86.4268C101.791 86.6181 101.756 86.8397 101.756 87.0916C101.756 87.3454 101.791 87.5698 101.861 87.7649C101.933 87.9581 102.036 88.1096 102.171 88.2195C102.307 88.3274 102.475 88.3814 102.674 88.3814ZM107.757 89.3587C107.308 89.3587 106.922 89.2678 106.598 89.0859C106.276 88.9022 106.028 88.6428 105.853 88.3075C105.679 87.9704 105.592 87.5717 105.592 87.1115C105.592 86.6626 105.679 86.2687 105.853 85.9297C106.028 85.5907 106.273 85.3265 106.589 85.1371C106.907 84.9477 107.28 84.853 107.708 84.853C107.996 84.853 108.264 84.8994 108.512 84.9922C108.762 85.0831 108.98 85.2204 109.166 85.4041C109.353 85.5878 109.499 85.8189 109.603 86.0973C109.708 86.3738 109.76 86.6977 109.76 87.0689V87.4013H106.075V86.6513H108.62C108.62 86.477 108.583 86.3227 108.507 86.1882C108.431 86.0537 108.326 85.9486 108.191 85.8729C108.059 85.7952 107.904 85.7564 107.728 85.7564C107.545 85.7564 107.382 85.799 107.24 85.8842C107.1 85.9676 106.99 86.0803 106.91 86.2223C106.831 86.3625 106.79 86.5187 106.788 86.6911V87.4041C106.788 87.62 106.828 87.8066 106.907 87.9638C106.989 88.121 107.103 88.2422 107.251 88.3274C107.399 88.4126 107.574 88.4553 107.777 88.4553C107.911 88.4553 108.034 88.4363 108.146 88.3984C108.258 88.3606 108.353 88.3037 108.433 88.228C108.512 88.1522 108.573 88.0594 108.615 87.9496L109.734 88.0234C109.677 88.2924 109.561 88.5272 109.385 88.728C109.21 88.9268 108.985 89.0821 108.708 89.1939C108.434 89.3037 108.117 89.3587 107.757 89.3587ZM114.18 86.1541L113.072 86.2223C113.053 86.1276 113.012 86.0424 112.95 85.9666C112.887 85.889 112.805 85.8274 112.703 85.782C112.602 85.7346 112.482 85.7109 112.342 85.7109C112.154 85.7109 111.996 85.7507 111.868 85.8303C111.739 85.9079 111.674 86.0121 111.674 86.1428C111.674 86.2469 111.716 86.335 111.799 86.407C111.883 86.4789 112.026 86.5367 112.228 86.5803L113.018 86.7393C113.442 86.8265 113.759 86.9666 113.967 87.1598C114.175 87.353 114.279 87.6068 114.279 87.9212C114.279 88.2071 114.195 88.4581 114.027 88.674C113.86 88.8899 113.631 89.0585 113.339 89.1797C113.049 89.299 112.715 89.3587 112.336 89.3587C111.759 89.3587 111.298 89.2384 110.956 88.9979C110.615 88.7554 110.415 88.4259 110.356 88.0092L111.547 87.9467C111.583 88.1229 111.67 88.2573 111.808 88.3501C111.946 88.4411 112.123 88.4865 112.339 88.4865C112.551 88.4865 112.722 88.4458 112.85 88.3643C112.981 88.281 113.047 88.174 113.049 88.0433C113.047 87.9335 113.001 87.8435 112.91 87.7734C112.819 87.7015 112.679 87.6465 112.49 87.6087L111.734 87.4581C111.308 87.3729 110.991 87.2251 110.782 87.0149C110.576 86.8047 110.473 86.5367 110.473 86.2109C110.473 85.9306 110.548 85.6892 110.7 85.4865C110.853 85.2839 111.068 85.1276 111.345 85.0178C111.623 84.9079 111.949 84.853 112.322 84.853C112.873 84.853 113.307 84.9695 113.623 85.2024C113.941 85.4354 114.127 85.7526 114.18 86.1541ZM116.252 86.7507V89.2734H115.042V83.4553H116.218V85.6797H116.269C116.367 85.4221 116.526 85.2204 116.746 85.0746C116.966 84.9268 117.241 84.853 117.573 84.853C117.876 84.853 118.14 84.9193 118.365 85.0518C118.593 85.1825 118.769 85.371 118.894 85.6172C119.021 85.8615 119.083 86.1541 119.081 86.495V89.2734H117.871V86.7109C117.873 86.442 117.805 86.2327 117.667 86.0831C117.53 85.9335 117.339 85.8587 117.093 85.8587C116.928 85.8587 116.782 85.8937 116.655 85.9638C116.53 86.0339 116.432 86.1361 116.36 86.2706C116.29 86.4032 116.254 86.5632 116.252 86.7507Z" fill="white"/>
</svg>
